<svg width="25" height="27" viewBox="0 0 25 27" fill="none" xmlns="http://www.w3.org/2000/svg">
  <path fill-rule="evenodd" clip-rule="evenodd"
    d="M11.998 0C15.2043 0 17.8531 2.51081 18.1797 5.72205L18.2708 5.72315C20.0495 5.72315 22.2122 6.93717 22.942 10.3422L23.9099 18.0411C24.2571 20.5258 23.8228 22.519 22.617 23.9485C21.4173 25.3706 19.5184 26.1232 17.1251 26.1232H6.88479C4.25601 26.1232 2.42457 25.4613 1.28499 24.1011C0.140493 22.737 -0.242232 20.691 0.147853 18.0209L1.09976 10.4242C1.72537 6.94095 4.01313 5.72315 5.78445 5.72315C5.93737 4.27399 6.57321 2.89536 7.58191 1.862C8.74113 0.678236 10.3395 0 11.9722 0H11.998ZM18.2708 7.61415H5.78445C5.24349 7.61415 3.43536 7.83854 2.91647 10.7179L1.96947 18.2819C1.66158 20.4036 1.89955 21.9391 2.6785 22.8682C3.44763 23.7859 4.82396 24.2322 6.88479 24.2322H17.1251C18.4107 24.2322 20.1661 23.9687 21.2259 22.7106C22.0674 21.7134 22.3569 20.2283 22.0871 18.2957L21.1315 10.6662C20.7242 8.78656 19.6496 7.61415 18.2708 7.61415ZM15.5756 11.124C16.0834 11.124 16.5238 11.5475 16.5238 12.0695C16.5238 12.5914 16.1399 13.0149 15.632 13.0149H15.5756C15.0677 13.0149 14.6556 12.5914 14.6556 12.0695C14.6556 11.5475 15.0677 11.124 15.5756 11.124ZM8.4239 11.124C8.93175 11.124 9.37213 11.5475 9.37213 12.0695C9.37213 12.5914 8.98695 13.0149 8.47911 13.0149H8.4239C7.91606 13.0149 7.50389 12.5914 7.50389 12.0695C7.50389 11.5475 7.91606 11.124 8.4239 11.124ZM11.9943 1.89099H11.9759C10.8216 1.89099 9.69671 2.36878 8.88097 3.20208C8.21647 3.88191 7.78188 4.77563 7.6413 5.72257L16.3253 5.72292C16.0101 3.5568 14.1875 1.89099 11.9943 1.89099Z"
    fill="black" />
</svg>
  