<svg width="18" height="23" viewBox="0 0 18 23" fill="none" xmlns="http://www.w3.org/2000/svg">
  <path
    d="M5.46826 7.39555L5.46626 7.39655L5.46326 7.39855L5.46826 7.39555ZM15.4223 7.20855C15.3527 7.14143 15.2755 7.08269 15.1923 7.03355C15.0744 6.96417 14.9436 6.91969 14.8079 6.90288C14.6722 6.88606 14.5344 6.89726 14.4032 6.93578C14.272 6.9743 14.1501 7.03933 14.045 7.12684C13.9399 7.21434 13.8539 7.32248 13.7923 7.44455C13.4479 8.12347 12.9728 8.72769 12.3943 9.22255C12.483 8.7241 12.5278 8.21883 12.5283 7.71255C12.5302 6.17268 12.124 4.65982 11.3511 3.32797C10.5782 1.99613 9.46618 0.892879 8.12826 0.130547C7.98083 0.0467754 7.81451 0.00187187 7.64495 5.72705e-05C7.47538 -0.00175733 7.30815 0.0395766 7.15895 0.120174C7.00976 0.20077 6.88351 0.317983 6.79207 0.460792C6.70064 0.603601 6.64702 0.767316 6.63626 0.936547C6.58027 1.88465 6.3324 2.81151 5.90766 3.661C5.48292 4.51048 4.89015 5.2649 4.16526 5.87855L3.93526 6.06555C3.17688 6.57579 2.50561 7.20485 1.94726 7.92855C1.07954 9.02166 0.478451 10.3019 0.191678 11.6678C-0.0950947 13.0337 -0.0596659 14.4476 0.295155 15.7974C0.649976 17.1472 1.31443 18.3957 2.23581 19.444C3.15719 20.4923 4.31016 21.3115 5.60326 21.8365C5.75508 21.8983 5.91976 21.9219 6.08281 21.9051C6.24586 21.8883 6.40228 21.8316 6.5383 21.7402C6.67431 21.6487 6.78576 21.5252 6.86283 21.3805C6.9399 21.2359 6.98023 21.0745 6.98026 20.9105C6.97943 20.8046 6.96257 20.6994 6.93026 20.5985C6.70652 19.7576 6.64208 18.8822 6.74026 18.0175C7.68674 19.8021 9.20581 21.2166 11.0533 22.0335C11.2787 22.1343 11.5334 22.1479 11.7683 22.0715C13.2277 21.6004 14.5425 20.7639 15.5877 19.6416C16.6328 18.5192 17.3737 17.1483 17.7398 15.659C18.1059 14.1697 18.0852 12.6115 17.6796 11.1325C17.274 9.65345 16.4969 8.3027 15.4223 7.20855ZM11.5173 20.0395C10.6456 19.5978 9.87656 18.9776 9.26029 18.2192C8.64401 17.4608 8.19426 16.5812 7.94026 15.6375C7.86261 15.3198 7.80252 14.9979 7.76026 14.6735C7.73181 14.467 7.63949 14.2745 7.49622 14.123C7.35296 13.9714 7.16592 13.8685 6.96126 13.8285C6.89834 13.8163 6.83436 13.8103 6.77026 13.8105C6.59456 13.8104 6.42191 13.8565 6.26971 13.9443C6.1175 14.0321 5.99111 14.1584 5.90326 14.3105C5.07371 15.7418 4.65664 17.3748 4.69826 19.0285C3.96842 18.4612 3.35844 17.7547 2.90368 16.9499C2.44892 16.1451 2.15842 15.2581 2.04904 14.3402C1.93965 13.4223 2.01354 12.4918 2.26643 11.6027C2.51932 10.7136 2.94618 9.88348 3.52226 9.16055C3.95968 8.59239 4.48736 8.09984 5.08426 7.70255C5.11038 7.68579 5.13543 7.66742 5.15926 7.64755C5.15926 7.64755 5.45526 7.40255 5.46526 7.39755C6.89046 6.19259 7.90423 4.57301 8.36526 2.76455C9.45469 3.77191 10.181 5.11081 10.4315 6.57331C10.6819 8.03582 10.4424 9.54009 9.75026 10.8525C9.65866 11.0277 9.62103 11.2261 9.64213 11.4227C9.66323 11.6192 9.74212 11.8051 9.86882 11.9569C9.99552 12.1086 10.1644 12.2194 10.354 12.2752C10.5436 12.3311 10.7456 12.3294 10.9343 12.2705C12.466 11.7902 13.8138 10.8521 14.7963 9.58255C15.387 10.4548 15.7732 11.4491 15.9261 12.4914C16.0791 13.5336 15.9948 14.597 15.6796 15.6021C15.3644 16.6073 14.8264 17.5284 14.1057 18.2967C13.385 19.065 12.5002 19.6608 11.5173 20.0395Z"
    fill="#FF0000" />
</svg>
  