<svg width="25" height="20" viewBox="0 0 25 20" fill="none" xmlns="http://www.w3.org/2000/svg">
  <path
    d="M1.62564 3.78184L1.6254 3.78224C0.71232 5.35338 0.568414 7.54418 2.1002 10.2039L2.10026 10.204C3.56239 12.7415 6.55396 15.7019 11.8286 18.8849L12.1253 19.0639L12.4219 18.8849C17.6968 15.7018 20.6866 12.7414 22.1502 10.2042L22.1504 10.2038C23.6819 7.54321 23.54 5.35351 22.6249 3.78184C21.6763 2.15264 19.9158 1.15072 18.085 0.856062C16.253 0.56119 14.2583 0.959859 12.8269 2.25421L12.8267 2.25447L12.125 2.88978L11.4236 2.25555C11.4236 2.25555 11.4236 2.25554 11.4236 2.25554C9.99225 0.961242 7.9977 0.562197 6.16563 0.856712C4.33489 1.15101 2.57424 2.15259 1.62564 3.78184ZM11.4972 1.97028L11.4981 1.97098C11.5814 2.03816 11.662 2.10668 11.7387 2.17657L12.1271 2.53018L12.5138 2.17477C12.5883 2.10631 12.6659 2.0403 12.7467 1.97691L12.7467 1.97696L12.7535 1.97144C14.319 0.702773 16.4339 0.332312 18.4134 0.720877C20.3963 1.1101 22.1618 2.24442 23.0522 3.87801C23.9267 5.48219 24.0152 7.67554 22.4453 10.337C20.8897 12.9741 17.7136 16.0454 12.1253 19.3349C6.53688 16.0457 3.36069 12.9747 1.80501 10.3379C0.23498 7.67667 0.323377 5.48349 1.19775 3.87932C2.08816 2.24573 3.85355 1.11124 5.83658 0.721607C7.81624 0.332637 9.93137 0.702503 11.4972 1.97028Z"
    fill="black" stroke="black" stroke-width="1.14825" />
</svg>
  