<svg width="22" height="22" viewBox="0 0 22 22" fill="none" xmlns="http://www.w3.org/2000/svg">
  <path
    d="M20.172 5.88496H16.4864C16.5273 5.85029 16.5694 5.81667 16.6093 5.77989C16.9284 5.49641 17.1855 5.15014 17.3647 4.76273C17.5438 4.37533 17.6411 3.95513 17.6505 3.52841C17.6643 3.06159 17.5825 2.59687 17.4102 2.16279C17.2379 1.72871 16.9787 1.33443 16.6485 1.00415C16.3184 0.673861 15.9241 0.414546 15.4901 0.242123C15.0561 0.0696993 14.5914 -0.0121952 14.1246 0.00146682C13.6977 0.0106617 13.2773 0.107879 12.8897 0.287033C12.5021 0.466188 12.1556 0.723422 11.872 1.04263C11.4796 1.49744 11.1606 2.01072 10.9265 2.56394C10.6924 2.01072 10.3733 1.49744 9.98092 1.04263C9.69732 0.723422 9.35088 0.466188 8.96328 0.287033C8.57569 0.107879 8.15528 0.0106617 7.72838 0.00146682C7.26156 -0.0121952 6.79687 0.0696993 6.36284 0.242123C5.92881 0.414546 5.5346 0.673861 5.20442 1.00415C4.87423 1.33443 4.61504 1.72871 4.44274 2.16279C4.27045 2.59687 4.18869 3.06159 4.20249 3.52841C4.21183 3.95513 4.30912 4.37533 4.48827 4.76273C4.66742 5.15014 4.92458 5.49641 5.24366 5.77989C5.28358 5.81456 5.32561 5.84818 5.36658 5.88496H1.681C1.23517 5.88496 0.8076 6.06206 0.492352 6.37731C0.177104 6.69256 0 7.12012 0 7.56595V10.9279C0 11.3738 0.177104 11.8013 0.492352 12.1166C0.8076 12.4318 1.23517 12.6089 1.681 12.6089V19.3329C1.681 19.7788 1.8581 20.2063 2.17335 20.5216C2.4886 20.8368 2.91617 21.0139 3.36199 21.0139H18.491C18.9368 21.0139 19.3644 20.8368 19.6796 20.5216C19.9949 20.2063 20.172 19.7788 20.172 19.3329V12.6089C20.6178 12.6089 21.0454 12.4318 21.3606 12.1166C21.6759 11.8013 21.853 11.3738 21.853 10.9279V7.56595C21.853 7.12012 21.6759 6.69256 21.3606 6.37731C21.0454 6.06206 20.6178 5.88496 20.172 5.88496ZM13.1328 2.15629C13.2659 2.00933 13.4279 1.89147 13.6087 1.81011C13.7895 1.72875 13.9852 1.68565 14.1834 1.68351H14.2349C14.4673 1.68497 14.697 1.73278 14.9106 1.82416C15.1243 1.91554 15.3175 2.04864 15.4791 2.21567C15.6406 2.3827 15.7672 2.58029 15.8514 2.79686C15.9356 3.01344 15.9758 3.24464 15.9695 3.47693C15.9673 3.67518 15.9242 3.87085 15.8429 4.05165C15.7615 4.23244 15.6437 4.39447 15.4967 4.52755C14.4996 5.41007 12.8449 5.72106 11.8195 5.83032C11.9456 4.71771 12.2923 3.1008 13.1328 2.15629ZM6.39934 2.19412C6.72498 1.86852 7.16599 1.68464 7.62647 1.68246H7.67795C7.8762 1.6846 8.07187 1.7277 8.25267 1.80906C8.43347 1.89042 8.5955 2.00828 8.72858 2.15524C9.61005 3.15123 9.92103 4.80281 10.0303 5.82402C9.00909 5.71896 7.35751 5.40377 6.36152 4.5223C6.21456 4.38922 6.0967 4.22719 6.01534 4.04639C5.93398 3.86559 5.89088 3.66992 5.88874 3.47167C5.88223 3.23553 5.92375 3.00053 6.0108 2.78091C6.09785 2.5613 6.22861 2.36167 6.39514 2.19412H6.39934ZM1.681 7.56595H10.086V10.9279H1.681V7.56595ZM3.36199 12.6089H10.086V19.3329H3.36199V12.6089ZM18.491 19.3329H11.767V12.6089H18.491V19.3329ZM20.172 10.9279H11.767V7.56595H20.172V10.9279Z"
    fill="#FFC700" />
</svg>
  