<svg width="24" height="24" viewBox="0 0 24 24" fill="none" xmlns="http://www.w3.org/2000/svg">
  <path fill-rule="evenodd" clip-rule="evenodd"
    d="M13.5853 15.3958C14.9335 15.3958 16.0309 16.4283 16.0309 17.6975V20.9616C16.0309 21.2344 16.2616 21.453 16.5572 21.4593H18.6915C20.3735 21.4593 21.7407 20.1796 21.7407 18.6069V9.34932C21.7329 8.80812 21.4608 8.29876 20.9938 7.96025L13.6111 2.38065C12.6201 1.63678 11.2338 1.63678 10.2394 2.38277L2.90704 7.95813C2.42217 8.30725 2.15006 8.81661 2.14446 9.36736V18.6069C2.14446 20.1796 3.51172 21.4593 5.19364 21.4593H7.34811C7.65157 21.4593 7.89792 21.2312 7.89792 20.951C7.89792 20.8895 7.90576 20.8279 7.9192 20.7696V17.6975C7.9192 16.4358 9.00987 15.4043 10.348 15.3958H13.5853ZM18.6915 23.0511H16.5371C15.3031 23.0235 14.3512 22.1056 14.3512 20.9616V17.6975C14.3512 17.3059 14.0075 16.9876 13.5853 16.9876H10.3536C9.94041 16.9897 9.59888 17.3091 9.59888 17.6975V20.951C9.59888 21.0306 9.58768 21.107 9.56416 21.1792C9.44323 22.2297 8.49589 23.0511 7.34811 23.0511H5.19364C2.58566 23.0511 0.464783 21.0571 0.464783 18.6069V9.35993C0.475981 8.30513 0.988843 7.33947 1.87459 6.70383L9.19239 1.13803C10.8038 -0.0716975 13.0489 -0.0716975 14.6569 1.13591L22.0274 6.70702C22.893 7.33204 23.4058 8.29558 23.4204 9.33764V18.6069C23.4204 21.0571 21.2995 23.0511 18.6915 23.0511Z"
    fill="black" />
</svg>
  