<svg width="23" height="21" viewBox="0 0 23 21" fill="none" xmlns="http://www.w3.org/2000/svg">
  <path
    d="M8.31096 4.66446C8.30766 6.68167 6.6697 8.31427 4.65249 8.31097C2.63527 8.30766 1.00268 6.66971 1.00598 4.65249C1.00928 2.63528 2.64724 1.00268 4.66445 1.00598C6.68167 1.00929 8.31427 2.64724 8.31096 4.66446Z"
    stroke="black" stroke-width="1.82625" stroke-linecap="round" stroke-linejoin="round" />
  <path d="M9.27643 5.22412L21.1105 5.24351" stroke="black" stroke-width="2.09934"
    stroke-linecap="round" stroke-linejoin="round" />
  <path
    d="M14.689 15.622C14.6923 17.6392 16.3303 19.2718 18.3475 19.2685C20.3647 19.2652 21.9973 17.6272 21.994 15.61C21.9907 13.5928 20.3527 11.9602 18.3355 11.9635C16.3183 11.9668 14.6857 13.6048 14.689 15.622Z"
    stroke="black" stroke-width="1.82625" stroke-linecap="round" stroke-linejoin="round" />
  <path d="M13.743 16.1712L1.91152 16.171" stroke="black" stroke-width="2.09934"
    stroke-linecap="round" stroke-linejoin="round" />
</svg>
  