<svg width="22" height="23" viewBox="0 0 22 23" fill="none" xmlns="http://www.w3.org/2000/svg">
  <path
    d="M21.3491 16.3179L15.0938 22.5845L12.0728 19.5522L13.0835 18.5415L15.0938 20.5405L20.3384 15.3071L21.3491 16.3179ZM10.0625 7.1875H5.75V5.75H10.0625V7.1875ZM10.0625 10.0625H5.75V8.625H10.0625V10.0625ZM5.75 11.5H10.0625V12.9375H5.75V11.5ZM4.3125 7.1875H2.875V5.75H4.3125V7.1875ZM4.3125 10.0625H2.875V8.625H4.3125V10.0625ZM2.875 11.5H4.3125V12.9375H2.875V11.5ZM11.5 7.1875V1.4375H1.4375V21.5625H11.5V23H0V0H12.522L18.6875 6.16553V14.375L17.25 15.8125V7.1875H11.5ZM12.9375 5.75H16.228L12.9375 2.45947V5.75Z"
    fill="#FFC700" />
</svg>
  