<svg width="221" height="99" viewBox="0 0 221 99" fill="none" xmlns="http://www.w3.org/2000/svg">
  <path
    d="M216.012 69.8357L140.649 74.5874C139.049 77.739 137.142 80.632 134.927 83.2502L216.546 78.1107C218.825 77.9653 220.57 75.9935 220.425 73.7146C220.279 71.4358 218.324 69.6903 216.028 69.8357H216.012Z"
    fill="black" />
  <path
    d="M67.58 70.8704C65.1718 70.5148 15.6836 63.2257 0.652893 56.3407C5.85708 77.9655 27.094 91.6386 63.8465 97.0206C107.694 103.421 127.121 90.0224 135.719 76.123C119.218 78.3534 69.9719 71.2098 67.58 70.8704Z"
    fill="#FBDE3F" />
  <path
    d="M7.81274 52.5914C7.4895 54.8379 34.5933 60.6563 68.3558 65.5857C102.118 70.5151 129.755 72.697 130.079 70.4505C130.402 68.2039 103.298 62.3856 69.5356 57.4562C35.7731 52.5268 8.13598 50.3449 7.81274 52.5914Z"
    fill="url(#paint0_linear_0_1)" />
  <path
    d="M13.3889 37.9001C16.2631 37.9001 18.5931 35.5701 18.5931 32.6959C18.5931 29.8218 16.2631 27.4918 13.3889 27.4918C10.5147 27.4918 8.18469 29.8218 8.18469 32.6959C8.18469 35.5701 10.5147 37.9001 13.3889 37.9001Z"
    fill="#4CAF50" />
  <path
    d="M139.016 52.0262C139.016 53.8687 137.513 55.3718 135.671 55.3718C133.828 55.3718 132.325 53.8687 132.325 52.0262C132.325 50.1837 133.828 48.6807 135.671 48.6807C137.513 48.6807 139.016 50.1837 139.016 52.0262Z"
    fill="#FF0000" />
  <path
    d="M37.0986 45.3506C37.0986 47.1931 35.5956 48.6962 33.7531 48.6962C31.9106 48.6962 30.4075 47.1931 30.4075 45.3506C30.4075 43.5081 31.9106 42.0051 33.7531 42.0051C35.5956 42.0051 37.0986 43.5081 37.0986 45.3506Z"
    fill="#B617B9" />
  <path
    d="M118.184 30.837C119.683 30.837 120.899 29.6214 120.899 28.1218C120.899 26.6222 119.683 25.4066 118.184 25.4066C116.684 25.4066 115.468 26.6222 115.468 28.1218C115.468 29.6214 116.684 30.837 118.184 30.837Z"
    fill="#FF3D00" />
  <path
    d="M68.9864 5.20418C68.9864 8.08103 66.659 10.4084 63.7822 10.4084C60.9053 10.4084 58.578 8.08103 58.578 5.20418C58.578 2.32734 60.9053 0 63.7822 0C66.659 0 68.9864 2.32734 68.9864 5.20418Z"
    fill="#FFCF5A" />
  <path
    d="M101.165 42.4582L98.1748 42.6037C97.9324 42.6037 97.7061 42.7491 97.5768 42.9592L96.0253 45.529C95.702 46.0624 94.9101 45.9977 94.6838 45.3997L93.6171 42.6037C93.5363 42.3774 93.3262 42.1996 93.0838 42.135L90.1746 41.4562C89.5604 41.3107 89.3826 40.5349 89.8837 40.147L92.211 38.2722C92.405 38.1106 92.5019 37.8682 92.4858 37.6258L92.2272 34.6358C92.1787 34.0216 92.8575 33.6014 93.3747 33.9408L95.8798 35.5893C96.0899 35.7186 96.3485 35.751 96.5748 35.654L99.3385 34.4903C99.9203 34.2479 100.518 34.7812 100.357 35.3792L99.5648 38.2722C99.5001 38.5147 99.5648 38.7733 99.7264 38.9511L101.682 41.2137C102.086 41.6824 101.779 42.4259 101.149 42.4421L101.165 42.4582Z"
    fill="#06C167" />
  <path
    d="M62.602 22.4653L61.1798 26.1503C61.0666 26.4574 61.099 26.7968 61.2929 27.0715L63.5556 30.3039C64.0243 30.9827 63.5233 31.904 62.699 31.8555L58.7555 31.6454C58.4322 31.6292 58.109 31.7747 57.915 32.0333L55.5392 35.1849C55.0382 35.8475 54.0038 35.6374 53.7937 34.8455L52.7755 31.0312C52.6947 30.708 52.4523 30.4655 52.1452 30.3524L48.4118 29.0756C47.636 28.8009 47.5067 27.7665 48.2016 27.3139L51.5149 25.1806C51.7896 25.0028 51.9674 24.6957 51.9674 24.3724L52.0321 20.4289C52.0321 19.6046 53.0018 19.1683 53.6321 19.6855L56.6867 22.1744C56.9453 22.3845 57.2847 22.4492 57.5918 22.3522L61.3576 21.2047C62.1495 20.9623 62.8606 21.738 62.5697 22.4977L62.602 22.4653Z"
    fill="#FF3D00" />
  <defs>
    <linearGradient id="paint0_linear_0_1" x1="68.9457" y1="51.707" x2="68.9457" y2="71.3348"
      gradientUnits="userSpaceOnUse">
      <stop stop-color="#FF725E" />
      <stop offset="1" stop-color="#FFE033" />
    </linearGradient>
  </defs>
</svg>
