<svg width="25" height="23" viewBox="0 0 25 23" fill="none" xmlns="http://www.w3.org/2000/svg">
  <path
    d="M24.7921 21.6271L17.8668 15.2525C19.531 13.4135 20.3608 11.0547 20.1838 8.66682C20.0067 6.27895 18.8363 4.04585 16.9161 2.43205C14.9959 0.818261 12.4736 -0.0519667 9.8741 0.00240243C7.27458 0.0567716 4.7979 1.03155 2.95928 2.72396C1.12067 4.41637 0.0616761 6.6961 0.00260997 9.08891C-0.0564561 11.4817 0.88895 13.8034 2.64216 15.5709C4.39537 17.3384 6.82139 18.4158 9.41555 18.5788C12.0097 18.7418 14.5723 17.9779 16.5701 16.446L23.4954 22.8206L24.7921 21.6271ZM1.86681 9.31517C1.86681 7.81266 2.35085 6.3439 3.25771 5.09461C4.16457 3.84532 5.45353 2.87162 6.96158 2.29664C8.46964 1.72165 10.1291 1.57121 11.73 1.86433C13.3309 2.15746 14.8015 2.88098 15.9557 3.94342C17.1099 5.00585 17.896 6.35947 18.2144 7.8331C18.5329 9.30674 18.3694 10.8342 17.7448 12.2223C17.1201 13.6105 16.0623 14.7969 14.7051 15.6317C13.3479 16.4664 11.7522 16.912 10.1199 16.912C7.93179 16.9097 5.83399 16.1086 4.28677 14.6845C2.73954 13.2603 1.86924 11.3293 1.86681 9.31517Z"
    fill="black" />
</svg>
  