<svg width="20" height="20" viewBox="0 0 20 20" fill="none" xmlns="http://www.w3.org/2000/svg">
  <path
    d="M15.1615 19.9998C14.8999 19.9998 14.6367 19.9339 14.3943 19.8013L10.0218 17.4031L5.60533 19.8004C5.33361 19.9511 5.02663 20.0187 4.7197 19.9956C4.41276 19.9724 4.11833 19.8594 3.87025 19.6695C3.62053 19.4821 3.42659 19.225 3.31069 18.9279C3.1948 18.6307 3.16166 18.3054 3.21509 17.9895L4.05023 12.9128L0.499273 9.27335C0.277888 9.05033 0.121338 8.7667 0.0476128 8.45506C-0.0261119 8.14342 -0.0140194 7.8164 0.0825008 7.51161C0.176698 7.20632 0.351437 6.93487 0.58671 6.72834C0.821982 6.5218 1.10828 6.38853 1.41281 6.34378L6.30048 5.60305L8.52273 0.956781C8.80272 0.366196 9.36828 0 10.0002 0C10.6322 0 11.1978 0.366196 11.4777 0.956781L13.664 5.57552L18.5877 6.34378C18.8922 6.38853 19.1785 6.5218 19.4138 6.72834C19.649 6.93487 19.8238 7.20632 19.918 7.51161C20.0141 7.81645 20.026 8.14335 19.9523 8.45491C19.8786 8.76648 19.7223 9.05011 19.5012 9.27335L15.9638 12.8686L16.7854 17.9903C16.8383 18.3062 16.805 18.6313 16.6891 18.9284C16.5732 19.2255 16.3796 19.4826 16.1302 19.6703C15.8485 19.8836 15.5096 19.9989 15.1615 19.9998ZM1.6152 8.07884L5.15176 11.6741C5.53973 12.0695 5.71732 12.6367 5.62613 13.1939L4.79178 18.2714L5.23335 19.0622L4.86058 18.324L9.23229 15.9266C9.46875 15.7971 9.73183 15.7293 9.99894 15.7292C10.266 15.729 10.5292 15.7965 10.7658 15.9258L15.1383 18.324L15.2071 18.2714L14.3719 13.1947C14.3271 12.9202 14.3467 12.6385 14.4292 12.3736C14.5117 12.1087 14.6545 11.8687 14.8455 11.6741L18.3829 8.07884L18.3565 7.99292L13.4688 7.25218C13.2045 7.21183 12.9535 7.10521 12.7374 6.94147C12.5213 6.77773 12.3465 6.56176 12.2281 6.31209L10.0418 1.69334C10.0354 1.68 10.0282 1.66665 9.99863 1.66665L7.76918 6.31209C7.6511 6.56172 7.47664 6.7777 7.26079 6.94146C7.04495 7.10522 6.79418 7.21185 6.53007 7.25218L1.6408 7.99292L1.05604 8.67526L1.6152 8.07884Z"
    fill="#FDB600" />
</svg>
  